<?xml version="1.0" encoding="utf-8"?>
<!DOCTYPE svg PUBLIC "-//W3C//DTD SVG 1.0//EN" "http://www.w3.org/TR/2001/REC-SVG-20010904/DTD/svg10.dtd">
<svg version="1.0" xmlns="http://www.w3.org/2000/svg" width="220px" height="140px" viewBox="0 0 220 140" preserveAspectRatio="xMidYMid meet">
 <g fill="#ffffff">
  <path d="M0 70 l0 -70 110 0 110 0 0 70 0 70 -110 0 -110 0 0 -70z m110.50 1 c0 -29.35 -0.15 -44.50 -0.50 -44.50 -0.25 0 -0.50 0.45 -0.50 1 0 0.55 -0.20 1 -0.50 1 -0.25 0 -0.50 0.45 -0.50 1 0 0.55 -0.20 1 -0.50 1 -0.25 0 -0.50 0.45 -0.50 1 0 0.55 -0.20 1 -0.50 1 -0.25 0 -0.50 0.45 -0.50 1 0 0.55 -0.20 1 -0.50 1 -0.25 0 -0.50 0.45 -0.50 1 0 0.55 -0.20 1 -0.50 1 -0.25 0 -0.50 0.45 -0.50 1 0 0.55 -0.20 1 -0.50 1 -0.25 0 -0.50 0.45 -0.50 1 0 0.55 -0.20 1 -0.50 1 -0.25 0 -0.50 0.45 -0.50 1 0 0.55 -0.20 1 -0.50 1 -0.25 0 -0.50 0.45 -0.50 1 0 0.55 -0.20 1 -0.50 1 -0.25 0 -0.50 0.65 -0.50 1.40 0 0.80 -0.40 1.70 -1 2.10 -0.55 0.40 -1 1.10 -1 1.55 0 0.50 -0.30 1 -0.60 1.15 -0.50 0.25 -0.50 0.35 0 0.60 0.30 0.15 0.60 0.70 0.60 1.25 0 0.50 0.25 0.95 0.50 0.95 0.30 0 0.50 0.45 0.50 1 0 0.55 0.25 1 0.50 1 0.30 0 0.50 0.45 0.50 1 0 0.55 0.25 1 0.50 1 0.30 0 0.50 0.45 0.50 1 0 0.55 0.25 1 0.50 1 0.30 0 0.50 0.65 0.50 1.40 0 0.80 0.40 1.70 1 2.10 0.55 0.40 1 1.10 1 1.60 0 0.50 0.25 0.90 0.50 0.90 0.30 0 0.50 0.45 0.50 1 0 0.55 0.25 1 0.50 1 0.30 0 0.50 0.45 0.50 1 0 0.55 0.25 1 0.50 1 0.30 0 0.50 0.90 0.50 2 0 1.10 -0.20 2 -0.50 2 -0.25 0 -0.50 0.45 -0.50 1 0 0.55 -0.20 1 -0.50 1 -0.25 0 -0.50 0.45 -0.50 1 0 0.55 -0.20 1 -0.50 1 -0.25 0 -0.50 0.45 -0.50 1 0 0.65 -0.35 1 -1 1 -0.85 0 -1 0.35 -1 2 0 1.10 -0.20 2 -0.50 2 -0.25 0 -0.50 0.45 -0.50 1 0 0.55 -0.20 1 -0.50 1 -0.25 0 -0.50 0.45 -0.50 1 0 0.55 -0.20 1 -0.50 1 -0.25 0 -0.50 0.45 -0.50 1 0 0.55 -0.20 1 -0.50 1 -0.25 0 -0.50 0.90 -0.50 2 0 1.10 0.25 2 0.50 2 0.30 0 0.50 0.45 0.50 1 0 0.55 0.25 1 0.50 1 0.30 0 0.50 0.45 0.50 1 0 0.55 0.25 1 0.50 1 0.30 0 0.50 0.45 0.50 1 0 0.55 0.25 1 0.50 1 0.30 0 0.50 0.45 0.50 1 0 0.55 0.25 1 0.50 1 0.30 0 0.50 0.45 0.50 1 0 0.55 0.25 1 0.50 1 0.30 0 0.50 0.45 0.50 1 0 0.55 0.25 1 0.50 1 0.30 0 0.50 0.45 0.50 1 0 0.55 0.25 1 0.50 1 0.30 0 0.50 0.45 0.50 1 0 0.55 0.25 1 0.50 1 0.30 0 0.50 0.45 0.50 1 0 0.55 0.25 1 0.50 1 0.30 0 0.50 0.45 0.50 1 0 0.55 0.25 1 0.50 1 0.30 0 0.50 0.45 0.50 1 0 0.55 0.25 1 0.50 1 0.35 0 0.50 -15.15 0.50 -44.50z m74 43 c0 -0.25 -0.35 -0.50 -0.80 -0.50 -0.40 0 -1.65 -0.90 -2.70 -2 -1.05 -1.10 -2.20 -2 -2.50 -2 -0.35 0 -1.25 -0.65 -2 -1.50 -0.75 -0.80 -1.65 -1.50 -2 -1.50 -0.35 0 -1.25 -0.65 -2 -1.50 -0.75 -0.80 -1.65 -1.50 -2 -1.50 -0.30 0 -1.45 -0.90 -2.50 -2 -1.05 -1.10 -2.20 -2 -2.50 -2 -0.35 0 -1.25 -0.65 -2 -1.50 -0.75 -0.80 -1.65 -1.50 -2 -1.50 -0.35 0 -1.25 -0.65 -2 -1.50 -0.75 -0.80 -1.65 -1.50 -2 -1.50 -0.30 0 -1.45 -0.90 -2.50 -2 -1.05 -1.10 -2.20 -2 -2.50 -2 -0.35 0 -1.25 -0.65 -2 -1.50 -0.75 -0.80 -1.65 -1.50 -2 -1.50 -0.35 0 -1.25 -0.65 -2 -1.50 -0.75 -0.80 -1.65 -1.50 -2 -1.50 -0.30 0 -1.45 -0.90 -2.50 -2 -1.05 -1.10 -2.20 -2 -2.50 -2 -0.35 0 -1.25 -0.65 -2 -1.50 -0.75 -0.80 -1.70 -1.50 -2.10 -1.50 -0.35 0 -1 -0.45 -1.40 -1 -1.05 -1.45 -2.85 -1.25 -4.50 0.50 -0.75 0.85 -1.65 1.50 -2 1.50 -0.35 0 -1.25 0.70 -2 1.50 -0.75 0.85 -1.75 1.50 -2.20 1.50 -0.45 0 -0.80 0.25 -0.80 0.50 0 0.30 0.25 0.50 0.50 0.50 0.30 0 0.50 0.45 0.50 1 0 0.55 0.25 1 0.50 1 0.30 0 0.50 0.45 0.50 1 0 0.55 0.25 1 0.50 1 0.30 0 0.50 0.45 0.50 1 0 0.55 0.25 1 0.50 1 0.30 0 0.50 0.45 0.50 1 0 0.55 0.25 1 0.50 1 0.30 0 0.50 0.45 0.50 1 0 0.85 0.35 1 2 1 1.10 0 2 0.25 2 0.50 0 0.30 0.45 0.50 1 0.50 0.55 0 1 0.25 1 0.50 0 0.30 0.45 0.50 1 0.50 0.55 0 1 0.25 1 0.50 0 0.30 0.70 0.50 1.50 0.50 0.85 0 1.50 0.25 1.50 0.50 0 0.30 0.45 0.50 1 0.50 0.55 0 1 0.25 1 0.50 0 0.30 0.45 0.50 1 0.50 0.55 0 1 0.25 1 0.50 0 0.30 0.70 0.50 1.50 0.50 0.85 0 1.50 0.25 1.50 0.50 0 0.30 0.45 0.50 1 0.50 0.55 0 1 0.25 1 0.50 0 0.30 0.45 0.50 1 0.50 0.55 0 1 0.25 1 0.50 0 0.30 0.70 0.50 1.50 0.50 0.85 0 1.50 0.25 1.50 0.50 0 0.30 0.45 0.50 1 0.50 0.55 0 1 0.25 1 0.50 0 0.30 0.45 0.50 1 0.50 0.55 0 1 0.25 1 0.50 0 0.30 0.70 0.50 1.50 0.50 0.85 0 1.50 0.25 1.50 0.50 0 0.30 0.45 0.50 1 0.50 0.55 0 1 0.25 1 0.50 0 0.30 0.70 0.50 1.50 0.50 0.85 0 1.50 0.25 1.50 0.50 0 0.30 0.45 0.50 1 0.50 0.55 0 1 0.25 1 0.50 0 0.30 0.45 0.50 1 0.50 0.55 0 1 0.25 1 0.50 0 0.30 0.70 0.50 1.50 0.50 0.85 0 1.50 0.25 1.50 0.50 0 0.30 0.45 0.50 1 0.50 0.55 0 1 0.25 1 0.50 0 0.30 0.45 0.50 1 0.50 0.55 0 1 0.25 1 0.50 0 0.30 0.70 0.50 1.50 0.50 0.85 0 1.50 0.25 1.50 0.50 0 0.30 0.45 0.50 1 0.50 0.55 0 1 0.25 1 0.50 0 0.30 0.45 0.50 1 0.50 0.55 0 1 0.25 1 0.50 0 0.30 0.45 0.50 1 0.50 0.55 0 1 -0.20 1 -0.50z m-144.50 -5.50 c0.40 -0.55 1.05 -1 1.40 -1 0.40 0 1.35 -0.65 2.10 -1.50 0.75 -0.80 1.65 -1.50 2 -1.50 0.35 0 1.25 -0.65 2 -1.50 0.75 -0.80 1.65 -1.50 2 -1.50 0.30 0 1.45 -0.90 2.50 -2 1.05 -1.10 2.20 -2 2.50 -2 0.35 0 1.25 -0.65 2 -1.50 0.75 -0.80 1.65 -1.50 2 -1.50 0.35 0 1.25 -0.65 2 -1.50 0.75 -0.80 1.65 -1.50 2 -1.50 0.30 0 1.45 -0.90 2.50 -2 1.05 -1.10 2.20 -2 2.50 -2 0.35 0 1.25 -0.65 2 -1.50 0.75 -0.80 1.65 -1.50 2 -1.50 0.35 0 1.25 -0.65 2 -1.50 0.75 -0.80 1.65 -1.50 2 -1.50 0.30 0 1.45 -0.90 2.50 -2 1.05 -1.10 2.20 -2 2.50 -2 0.35 0 1.25 -0.65 2 -1.50 0.75 -0.80 1.75 -1.50 2.20 -1.50 0.45 0 0.80 -0.20 0.80 -0.50 0 -0.30 -2.75 -0.50 -7.25 -0.50 l-7.25 0 -2.75 2.75 c-1.50 1.50 -2.75 2.95 -2.75 3.25 0 0.30 -2 2.55 -4.50 5 -2.45 2.45 -4.50 4.70 -4.50 5 0 0.30 -2 2.55 -4.50 5 -2.45 2.45 -4.50 4.70 -4.50 5 0 0.30 -2 2.55 -4.50 5 -2.45 2.45 -4.50 4.60 -4.50 4.75 0 0.60 0.85 0.20 1.50 -0.75z m84.30 -35.25 c2 -2 2.15 -2.35 1.50 -3 -0.40 -0.40 -1 -0.75 -1.30 -0.75 -0.35 0 -1.25 -0.70 -2.05 -1.55 -1.30 -1.35 -1.50 -1.45 -2.20 -0.80 -0.40 0.45 -0.75 1.15 -0.75 1.55 0 0.45 -0.20 0.80 -0.50 0.80 -0.25 0 -0.50 0.90 -0.50 2 0 1.10 0.25 2 0.50 2 0.30 0 0.50 0.45 0.50 1 0 1.85 2.30 1.25 4.80 -1.25z m-39.80 -5.05 c0 -0.50 -1.40 -1.70 -2 -1.70 -0.35 0 -1.25 -0.65 -2 -1.50 -0.75 -0.80 -1.65 -1.50 -2 -1.50 -0.30 0 -1.45 -0.90 -2.50 -2 -1.05 -1.10 -2.20 -2 -2.50 -2 -0.35 0 -1.25 -0.65 -2 -1.50 -0.75 -0.80 -1.65 -1.50 -2 -1.50 -0.35 0 -1.25 -0.65 -2 -1.50 -0.75 -0.80 -1.65 -1.50 -2 -1.50 -0.30 0 -1.45 -0.90 -2.50 -2 -1.05 -1.10 -2.20 -2 -2.50 -2 -0.35 0 -1.25 -0.65 -2 -1.50 -0.75 -0.80 -1.65 -1.50 -2 -1.50 -0.35 0 -1.25 -0.65 -2 -1.50 -0.75 -0.80 -1.65 -1.50 -2 -1.50 -0.30 0 -1.45 -0.90 -2.50 -2 -1.05 -1.10 -2.20 -2 -2.50 -2 -0.35 0 -1.25 -0.65 -2 -1.50 -0.75 -0.80 -1.65 -1.50 -2 -1.50 -0.35 0 -1.25 -0.70 -2.05 -1.55 -0.80 -0.90 -1.60 -1.45 -1.75 -1.30 -0.20 0.15 1.30 1.85 3.25 3.80 1.95 1.90 3.55 3.75 3.55 4.05 0 0.30 2.05 2.55 4.50 5 2.50 2.45 4.50 4.70 4.50 5 0 0.30 2.25 2.75 5 5.50 2.75 2.75 5 5.20 5 5.50 0 0.30 1.20 1.75 2.65 3.20 l2.60 2.75 6.90 0 c3.75 0.05 6.85 -0.10 6.85 -0.25z m48 -0.20 c0 -0.25 0.35 -0.50 0.80 -0.50 0.45 0 1.45 -0.65 2.20 -1.50 0.75 -0.80 1.65 -1.50 2 -1.50 0.35 0 1.25 -0.65 2 -1.50 0.75 -0.80 1.65 -1.50 2 -1.50 0.30 0 1.45 -0.90 2.50 -2 1.05 -1.10 2.20 -2 2.50 -2 0.35 0 1.25 -0.65 2 -1.50 0.75 -0.80 1.65 -1.50 2 -1.50 0.35 0 1.25 -0.65 2 -1.50 0.75 -0.80 1.65 -1.50 2 -1.50 0.30 0 1.45 -0.90 2.50 -2 1.05 -1.10 2.20 -2 2.50 -2 0.35 0 1.25 -0.65 2 -1.50 0.75 -0.80 1.65 -1.50 2 -1.50 0.35 0 1.25 -0.65 2 -1.50 0.75 -0.80 1.65 -1.50 2 -1.50 0.30 0 1.45 -0.90 2.50 -2 1.05 -1.10 2.20 -2 2.50 -2 0.35 0 1.25 -0.65 2 -1.50 0.75 -0.80 1.65 -1.50 2 -1.50 0.35 0 1.25 -0.65 2 -1.50 0.75 -0.80 1.65 -1.50 1.95 -1.50 0.85 0 4.20 -3.50 3.80 -3.90 -0.20 -0.20 -0.50 -0.05 -0.60 0.30 -0.15 0.30 -0.65 0.60 -1.20 0.60 -0.50 0 -0.95 0.25 -0.95 0.50 0 0.30 -0.65 0.50 -1.50 0.50 -0.80 0 -1.50 0.25 -1.50 0.50 0 0.30 -0.45 0.50 -1 0.50 -0.55 0 -1 0.25 -1 0.50 0 0.30 -0.45 0.50 -1 0.50 -0.55 0 -1 0.25 -1 0.50 0 0.30 -0.45 0.50 -1 0.50 -0.55 0 -1 0.25 -1 0.50 0 0.30 -0.45 0.50 -1 0.50 -0.55 0 -1 0.25 -1 0.50 0 0.30 -0.65 0.50 -1.50 0.50 -0.80 0 -1.50 0.25 -1.50 0.50 0 0.30 -0.45 0.50 -1 0.50 -0.55 0 -1 0.25 -1 0.50 0 0.30 -0.45 0.50 -1 0.50 -0.55 0 -1 0.25 -1 0.50 0 0.30 -0.65 0.50 -1.50 0.50 -0.80 0 -1.50 0.25 -1.50 0.50 0 0.30 -0.45 0.50 -1 0.50 -0.55 0 -1 0.25 -1 0.50 0 0.30 -0.45 0.50 -1 0.50 -0.55 0 -1 0.25 -1 0.50 0 0.30 -0.65 0.50 -1.50 0.50 -0.80 0 -1.50 0.25 -1.50 0.50 0 0.30 -0.45 0.50 -1 0.50 -0.55 0 -1 0.25 -1 0.50 0 0.30 -0.45 0.50 -1 0.50 -0.55 0 -1 0.25 -1 0.50 0 0.30 -0.65 0.50 -1.50 0.50 -0.80 0 -1.50 0.25 -1.50 0.50 0 0.30 -0.45 0.50 -1 0.50 -0.55 0 -1 0.25 -1 0.50 0 0.30 -0.45 0.50 -1 0.50 -0.55 0 -1 0.25 -1 0.50 0 0.30 -0.65 0.50 -1.50 0.50 -0.80 0 -1.50 0.25 -1.50 0.50 0 0.30 -0.45 0.50 -1 0.50 -0.55 0 -1 0.25 -1 0.50 0 0.30 -0.45 0.50 -1 0.50 -0.55 0 -1 0.25 -1 0.50 0 0.30 -0.65 0.50 -1.50 0.50 -0.80 0 -1.50 0.25 -1.50 0.50 0 0.30 -0.45 0.50 -1 0.50 -0.55 0 -1 0.25 -1 0.50 0 0.30 -0.35 0.50 -0.75 0.50 -1 0 -3.25 2.25 -3.25 3.25 0 0.40 -0.20 0.75 -0.50 0.75 -0.25 0 -0.50 0.45 -0.50 1 0 0.55 -0.20 1 -0.50 1 -0.25 0 -0.50 0.45 -0.50 1 0 0.55 -0.20 1 -0.50 1 -0.25 0 -0.50 0.60 -0.50 1.30 0 1.35 1 2.70 2 2.70 0.35 0 1.25 0.70 2 1.50 0.75 0.85 1.70 1.50 2.10 1.50 0.35 0 1 0.45 1.40 1 0.75 1.05 1.50 1.30 1.50 0.50z"/>
 </g>
 <g fill="#010000">
  <path d="M24 121.70 c0 -0.50 1.40 -1.70 2 -1.70 0.75 0 2 -1.25 2 -2 0 -0.30 2 -2.55 4.50 -5 2.50 -2.45 4.50 -4.70 4.50 -5 0 -0.30 2.05 -2.55 4.50 -5 2.50 -2.45 4.50 -4.70 4.50 -5 0 -0.30 2.05 -2.55 4.50 -5 2.50 -2.45 4.50 -4.70 4.50 -5 0 -0.30 2.05 -2.55 4.50 -5 2.50 -2.45 4.50 -4.70 4.50 -5 0 -0.30 1.25 -1.75 2.75 -3.25 l2.75 -2.75 10.75 0 c10.40 0 10.75 -0.05 10.75 -1 0 -0.95 -0.35 -1 -10.75 -1 l-10.75 0 -2.75 -2.75 c-1.50 -1.50 -2.75 -2.95 -2.75 -3.25 0 -0.30 -2.25 -2.75 -5 -5.50 -2.75 -2.75 -5 -5.20 -5 -5.50 0 -0.30 -2 -2.55 -4.50 -5 -2.45 -2.45 -4.50 -4.70 -4.50 -5 0 -0.30 -2.05 -2.55 -4.50 -5 -2.45 -2.45 -4.50 -4.70 -4.50 -5 0 -0.30 -2.05 -2.55 -4.50 -5 -2.50 -2.45 -4.50 -4.80 -4.50 -5.25 0 -0.40 -0.35 -0.75 -0.80 -0.75 -0.75 0 -2.20 -1.15 -2.20 -1.70 0 -0.15 0.70 -0.30 1.50 -0.30 0.85 0 1.50 0.25 1.50 0.50 0 0.30 0.45 0.50 1 0.50 0.55 0 1 0.25 1 0.50 0 0.30 0.45 0.50 1 0.50 0.55 0 1 0.25 1 0.50 0 0.30 0.45 0.50 1 0.50 0.55 0 1 0.25 1 0.50 0 0.30 0.45 0.50 1 0.50 0.55 0 1 0.25 1 0.50 0 0.30 0.45 0.50 1 0.50 0.55 0 1 0.25 1 0.50 0 0.30 0.70 0.50 1.50 0.50 0.85 0 1.50 0.25 1.50 0.50 0 0.30 0.45 0.50 1 0.50 0.55 0 1 0.25 1 0.50 0 0.30 0.45 0.50 1 0.50 0.55 0 1 0.25 1 0.50 0 0.30 0.70 0.50 1.50 0.50 0.85 0 1.50 0.25 1.50 0.50 0 0.30 0.45 0.50 1 0.50 0.55 0 1 0.25 1 0.50 0 0.30 0.45 0.50 1 0.50 0.55 0 1 0.25 1 0.50 0 0.30 0.70 0.50 1.50 0.50 0.85 0 1.50 0.25 1.50 0.50 0 0.30 0.45 0.50 1 0.50 0.55 0 1 0.25 1 0.50 0 0.30 0.45 0.50 1 0.50 0.55 0 1 0.25 1 0.50 0 0.30 0.70 0.50 1.50 0.50 0.85 0 1.50 0.25 1.50 0.50 0 0.30 0.45 0.50 1 0.50 0.55 0 1 0.25 1 0.50 0 0.30 0.45 0.50 1 0.50 0.55 0 1 0.25 1 0.50 0 0.30 0.70 0.50 1.50 0.50 0.85 0 1.50 0.25 1.50 0.50 0 0.30 0.45 0.50 1 0.50 0.55 0 1 0.25 1 0.50 0 0.30 0.45 0.50 1 0.50 0.55 0 1 0.25 1 0.50 0 0.30 0.70 0.50 1.50 0.50 0.85 0 1.50 0.25 1.50 0.50 0 0.30 0.45 0.50 1 0.50 0.55 0 1 0.25 1 0.50 0 0.30 0.45 0.50 1 0.50 0.55 0 1 0.25 1 0.50 0 0.30 0.70 0.50 1.50 0.50 0.85 0 1.50 0.25 1.50 0.50 0 0.30 0.45 0.50 1 0.50 0.55 0 1 0.25 1 0.50 0 0.30 0.45 0.50 1 0.50 0.55 0 1 0.25 1 0.50 0 0.30 0.70 0.50 1.50 0.50 0.85 0 1.50 0.25 1.50 0.50 0 0.30 0.45 0.50 1 0.50 0.55 0 1 0.25 1 0.50 0 0.30 0.45 0.50 1 0.50 0.55 0 1 0.25 1 0.50 0 0.75 2.45 0.60 3.30 -0.20 0.40 -0.40 0.70 -1.05 0.70 -1.40 0 -0.40 0.45 -1 1 -1.40 0.60 -0.40 1 -1.30 1 -2.10 0 -0.75 0.25 -1.40 0.50 -1.40 0.30 0 0.50 -0.45 0.50 -1 0 -0.55 0.25 -1 0.50 -1 0.30 0 0.50 -0.45 0.50 -1 0 -0.55 0.25 -1 0.50 -1 0.30 0 0.50 -0.45 0.50 -1 0 -0.55 0.25 -1 0.50 -1 0.30 0 0.50 -0.45 0.50 -1 0 -0.55 0.25 -1 0.50 -1 0.30 0 0.50 -0.45 0.50 -1 0 -0.55 0.25 -1 0.50 -1 0.30 0 0.50 -0.45 0.50 -1 0 -0.55 0.25 -1 0.50 -1 0.30 0 0.50 -0.45 0.50 -1 0 -0.55 0.25 -1 0.50 -1 0.30 0 0.50 -0.45 0.50 -1 0 -0.55 0.25 -1 0.50 -1 0.30 0 0.50 -0.45 0.50 -1 0 -0.55 0.25 -1 0.50 -1 0.30 0 0.50 -0.45 0.50 -1 0 -0.55 0.25 -1 0.50 -1 0.30 0 0.50 -0.65 0.50 -1.50 0 -1.15 0.20 -1.50 1 -1.50 0.80 0 1 0.35 1 1.50 0 0.85 0.25 1.50 0.50 1.50 0.30 0 0.50 0.45 0.50 1 0 0.55 0.25 1 0.50 1 0.30 0 0.50 0.45 0.50 1 0 0.55 0.25 1 0.50 1 0.30 0 0.50 0.45 0.50 1 0 0.55 0.25 1 0.50 1 0.30 0 0.50 0.45 0.50 1 0 0.55 0.25 1 0.50 1 0.30 0 0.50 0.45 0.50 1 0 0.55 0.25 1 0.50 1 0.30 0 0.50 0.45 0.50 1 0 0.55 0.25 1 0.50 1 0.30 0 0.50 0.45 0.50 1 0 0.55 0.25 1 0.50 1 0.30 0 0.50 0.45 0.50 1 0 0.55 0.25 1 0.50 1 0.30 0 0.50 0.45 0.50 1 0 0.55 0.25 1 0.50 1 0.30 0 0.50 0.45 0.50 1 0 0.55 0.25 1 0.50 1 0.30 0 0.50 0.45 0.50 1 0 0.55 0.25 1 0.50 1 0.30 0 0.50 0.45 0.50 1 0 0.55 0.25 1 0.50 1 0.30 0 0.50 0.45 0.50 1 0 0.55 0.25 1 0.50 1 0.30 0 0.50 0.45 0.50 1 0 0.55 -0.20 1 -0.50 1 -0.25 0 -0.50 -0.45 -0.50 -1 0 -0.55 -0.20 -1 -0.50 -1 -0.25 0 -0.50 -0.45 -0.50 -1 0 -0.55 -0.20 -1 -0.50 -1 -0.25 0 -0.50 -0.45 -0.50 -1 0 -0.55 -0.20 -1 -0.50 -1 -0.25 0 -0.50 -0.45 -0.50 -1 0 -0.55 -0.20 -1 -0.50 -1 -0.25 0 -0.50 -0.45 -0.50 -1 0 -0.55 -0.20 -1 -0.50 -1 -0.25 0 -0.50 -0.45 -0.50 -1 0 -0.55 -0.20 -1 -0.50 -1 -0.25 0 -0.50 -0.45 -0.50 -1 0 -0.55 -0.20 -1 -0.50 -1 -0.25 0 -0.50 -0.45 -0.50 -1 0 -0.55 -0.20 -1 -0.50 -1 -0.25 0 -0.50 -0.45 -0.50 -1 0 -0.55 -0.20 -1 -0.50 -1 -0.25 0 -0.50 -0.45 -0.50 -1 0 -0.55 -0.20 -1 -0.50 -1 -0.25 0 -0.50 -0.45 -0.50 -1 0 -0.55 -0.20 -1 -0.50 -1 -0.25 0 -0.50 -0.45 -0.50 -1 0 -0.55 -0.20 -1 -0.50 -1 -0.25 0 -0.50 -0.45 -0.50 -1 0 -0.55 -0.20 -1 -0.50 -1 -0.35 0 -0.50 15.85 -0.50 46.50 0 30.65 0.15 46.50 0.50 46.50 0.30 0 0.50 -0.45 0.50 -1 0 -0.55 0.25 -1 0.50 -1 0.30 0 0.50 -0.45 0.50 -1 0 -0.55 0.25 -1 0.50 -1 0.30 0 0.50 -0.45 0.50 -1 0 -0.55 0.25 -1 0.50 -1 0.30 0 0.50 -0.45 0.50 -1 0 -0.55 0.25 -1 0.50 -1 0.30 0 0.50 -0.45 0.50 -1 0 -0.55 0.25 -1 0.50 -1 0.30 0 0.50 -0.45 0.50 -1 0 -0.55 0.25 -1 0.50 -1 0.30 0 0.50 -0.45 0.50 -1 0 -0.55 0.25 -1 0.50 -1 0.30 0 0.50 -0.45 0.50 -1 0 -0.55 0.25 -1 0.50 -1 0.30 0 0.50 -0.45 0.50 -1 0 -0.55 0.25 -1 0.50 -1 0.30 0 0.50 -0.45 0.50 -1 0 -0.55 0.25 -1 0.50 -1 0.30 0 0.50 -0.45 0.50 -1 0 -0.55 0.25 -1 0.50 -1 0.30 0 0.50 -0.45 0.50 -1 0 -0.55 0.25 -1 0.50 -1 0.30 0 0.50 -0.45 0.50 -0.95 0 -0.55 0.30 -1.10 0.65 -1.25 0.50 -0.25 0.50 -0.35 0 -0.60 -0.35 -0.15 -0.65 -0.70 -0.65 -1.25 0 -0.50 -0.20 -0.95 -0.50 -0.95 -0.25 0 -0.50 -0.45 -0.50 -1 0 -0.55 -0.20 -1 -0.50 -1 -0.25 0 -0.50 -0.45 -0.50 -1 0 -0.55 -0.20 -1 -0.50 -1 -0.25 0 -0.50 -0.40 -0.50 -0.90 0 -0.50 -0.45 -1.20 -1 -1.60 -0.55 -0.40 -1 -1 -1 -1.40 0 -0.85 1.20 -2.10 2 -2.10 0.35 0 1.25 -0.65 2 -1.50 0.75 -0.80 1.65 -1.50 2 -1.50 0.35 0 1.25 -0.65 2 -1.50 0.75 -0.80 1.65 -1.50 2 -1.50 0.30 0 0.90 -0.35 1.30 -0.75 0.65 -0.65 0.55 -0.95 -1 -2.50 -0.95 -0.95 -2 -1.75 -2.35 -1.75 -0.30 0 -1.20 -0.70 -1.95 -1.50 -0.75 -0.80 -1.65 -1.50 -1.95 -1.50 -1.05 0 -3.05 -2.45 -3.05 -3.75 0 -0.70 0.25 -1.25 0.50 -1.25 0.30 0 0.50 -0.45 0.50 -1 0 -0.55 0.25 -1 0.50 -1 0.30 0 0.50 -0.45 0.50 -1 0 -0.55 0.25 -1 0.50 -1 0.30 0 0.50 -0.45 0.50 -1 0 -0.55 0.25 -1 0.50 -1 0.30 0 0.50 -0.35 0.50 -0.75 0 -1 2.25 -3.25 3.25 -3.25 0.40 0 0.75 -0.20 0.75 -0.50 0 -0.25 0.45 -0.50 1 -0.50 0.55 0 1 -0.20 1 -0.50 0 -0.25 0.70 -0.50 1.50 -0.50 0.85 0 1.50 -0.20 1.50 -0.50 0 -0.25 0.45 -0.50 1 -0.50 0.55 0 1 -0.20 1 -0.50 0 -0.25 0.45 -0.50 1 -0.50 0.55 0 1 -0.20 1 -0.50 0 -0.25 0.70 -0.50 1.50 -0.50 0.85 0 1.50 -0.20 1.50 -0.50 0 -0.25 0.45 -0.50 1 -0.50 0.55 0 1 -0.20 1 -0.50 0 -0.25 0.45 -0.50 1 -0.50 0.55 0 1 -0.20 1 -0.50 0 -0.25 0.70 -0.50 1.50 -0.50 0.85 0 1.50 -0.20 1.50 -0.50 0 -0.25 0.45 -0.50 1 -0.50 0.55 0 1 -0.20 1 -0.50 0 -0.25 0.45 -0.50 1 -0.50 0.55 0 1 -0.20 1 -0.50 0 -0.25 0.70 -0.50 1.50 -0.50 0.85 0 1.50 -0.20 1.50 -0.50 0 -0.25 0.45 -0.50 1 -0.50 0.55 0 1 -0.20 1 -0.50 0 -0.25 0.45 -0.50 1 -0.50 0.55 0 1 -0.20 1 -0.50 0 -0.25 0.70 -0.50 1.50 -0.50 0.85 0 1.50 -0.20 1.50 -0.50 0 -0.25 0.45 -0.50 1 -0.50 0.55 0 1 -0.20 1 -0.50 0 -0.25 0.45 -0.50 1 -0.50 0.55 0 1 -0.20 1 -0.50 0 -0.25 0.70 -0.50 1.50 -0.50 0.85 0 1.50 -0.20 1.50 -0.50 0 -0.25 0.45 -0.50 1 -0.50 0.55 0 1 -0.20 1 -0.50 0 -0.25 0.45 -0.50 1 -0.50 0.55 0 1 -0.20 1 -0.50 0 -0.25 0.45 -0.50 1 -0.50 0.55 0 1 -0.20 1 -0.50 0 -0.25 0.45 -0.50 1 -0.50 0.55 0 1 -0.20 1 -0.50 0 -0.25 0.70 -0.50 1.50 -0.50 0.85 0 1.50 -0.20 1.50 -0.50 0 -0.25 0.45 -0.50 1 -0.50 0.55 0 1 -0.20 1 -0.50 0 -0.25 0.45 -0.50 1 -0.50 0.55 0 1 -0.20 1 -0.50 0 -0.25 0.70 -0.50 1.50 -0.50 0.85 0 1.50 -0.20 1.50 -0.50 0 -0.25 0.45 -0.50 1 -0.50 0.55 0 1 -0.20 1 -0.50 0 -0.25 0.45 -0.50 1 -0.50 0.55 0 1 -0.20 1 -0.50 0 -0.25 0.70 -0.50 1.50 -0.50 0.85 0 1.50 -0.20 1.50 -0.50 0 -0.25 0.45 -0.50 1 -0.50 0.55 0 1 -0.20 1 -0.50 0 -0.25 0.45 -0.50 1 -0.50 0.55 0 1 0.15 1 0.30 0 0.15 -1.15 1.35 -2.50 2.70 -1.40 1.35 -2.50 2.70 -2.50 3 0 0.30 -2 2.55 -4.50 5 -2.45 2.45 -4.50 4.70 -4.50 5 0 0.30 -2 2.55 -4.50 5 -2.45 2.45 -4.50 4.70 -4.50 5 0 0.30 -2 2.55 -4.50 5 -2.45 2.45 -4.50 4.70 -4.50 5 0 0.30 -2 2.55 -4.50 5 -2.45 2.45 -4.50 4.70 -4.50 5 0 0.35 -0.90 1.45 -2 2.50 -1.10 1.05 -2 2.20 -2 2.50 0 0.30 0.90 1.45 2 2.50 1.10 1.05 2 2.20 2 2.50 0 0.30 1.55 2.10 3.50 4 1.90 1.90 3.50 3.70 3.50 4 0 0.30 1.60 2.10 3.50 4 1.95 1.90 3.50 3.70 3.50 4 0 0.30 1.80 2.30 4 4.50 2.20 2.20 4 4.20 4 4.50 0 0.30 1.60 2.10 3.50 4 1.95 1.90 3.50 3.70 3.50 4 0 0.30 1.80 2.30 4 4.50 2.20 2.20 4 4.20 4 4.55 0 0.30 0.65 1.20 1.50 1.95 1.75 1.65 1.85 2 0.50 2 -0.55 0 -1 -0.20 -1 -0.50 0 -0.25 -0.45 -0.50 -1 -0.50 -0.55 0 -1 -0.20 -1 -0.50 0 -0.25 -0.45 -0.50 -1 -0.50 -0.55 0 -1 -0.20 -1 -0.50 0 -0.25 -0.65 -0.50 -1.50 -0.50 -0.80 0 -1.50 -0.20 -1.50 -0.50 0 -0.25 -0.45 -0.50 -1 -0.50 -0.55 0 -1 -0.20 -1 -0.50 0 -0.25 -0.45 -0.50 -1 -0.50 -0.55 0 -1 -0.20 -1 -0.50 0 -0.25 -0.65 -0.50 -1.50 -0.50 -0.80 0 -1.50 -0.20 -1.50 -0.50 0 -0.25 -0.45 -0.50 -1 -0.50 -0.55 0 -1 -0.20 -1 -0.50 0 -0.25 -0.45 -0.50 -1 -0.50 -0.55 0 -1 -0.20 -1 -0.50 0 -0.25 -0.65 -0.50 -1.50 -0.50 -0.80 0 -1.50 -0.20 -1.50 -0.50 0 -0.25 -0.45 -0.50 -1 -0.50 -0.55 0 -1 -0.20 -1 -0.50 0 -0.25 -0.45 -0.50 -1 -0.50 -0.55 0 -1 -0.20 -1 -0.50 0 -0.25 -0.65 -0.50 -1.50 -0.50 -0.80 0 -1.50 -0.20 -1.50 -0.50 0 -0.25 -0.45 -0.50 -1 -0.50 -0.55 0 -1 -0.20 -1 -0.50 0 -0.25 -0.45 -0.50 -1 -0.50 -0.55 0 -1 -0.20 -1 -0.50 0 -0.25 -0.65 -0.50 -1.50 -0.50 -0.80 0 -1.50 -0.20 -1.50 -0.50 0 -0.25 -0.45 -0.50 -1 -0.50 -0.55 0 -1 -0.20 -1 -0.50 0 -0.25 -0.65 -0.50 -1.50 -0.50 -0.80 0 -1.50 -0.20 -1.50 -0.50 0 -0.25 -0.45 -0.50 -1 -0.50 -0.55 0 -1 -0.20 -1 -0.50 0 -0.25 -0.45 -0.50 -1 -0.50 -0.55 0 -1 -0.20 -1 -0.50 0 -0.25 -0.65 -0.50 -1.50 -0.50 -0.80 0 -1.50 -0.20 -1.50 -0.50 0 -0.25 -0.45 -0.50 -1 -0.50 -0.55 0 -1 -0.20 -1 -0.50 0 -0.25 -0.45 -0.50 -1 -0.50 -0.55 0 -1 -0.20 -1 -0.50 0 -0.25 -0.65 -0.50 -1.50 -0.50 -0.80 0 -1.50 -0.20 -1.50 -0.50 0 -0.25 -0.45 -0.50 -1 -0.50 -0.55 0 -1 -0.20 -1 -0.50 0 -0.25 -0.45 -0.50 -1 -0.50 -0.55 0 -1 -0.20 -1 -0.50 0 -0.25 -0.65 -0.50 -1.50 -0.50 -0.80 0 -1.50 -0.20 -1.50 -0.50 0 -0.25 -0.45 -0.50 -1 -0.50 -0.55 0 -1 -0.20 -1 -0.50 0 -0.25 -0.45 -0.50 -1 -0.50 -0.55 0 -1 -0.20 -1 -0.50 0 -0.75 -3.50 -0.60 -4.30 0.20 -0.40 0.40 -0.70 1.25 -0.70 1.90 0 0.65 -0.45 1.50 -1 1.90 -0.55 0.40 -1 1.10 -1 1.60 0 0.50 -0.20 0.90 -0.50 0.90 -0.25 0 -0.50 0.45 -0.50 1 0 0.55 -0.20 1 -0.50 1 -0.25 0 -0.50 0.45 -0.50 1 0 0.55 -0.20 1 -0.50 1 -0.25 0 -0.50 0.45 -0.50 1 0 0.55 -0.20 1 -0.50 1 -0.25 0 -0.50 0.45 -0.50 1 0 0.55 -0.20 1 -0.50 1 -0.25 0 -0.50 0.45 -0.50 1 0 0.55 -0.20 1 -0.50 1 -0.25 0 -0.50 0.45 -0.50 1 0 0.55 -0.20 1 -0.50 1 -0.25 0 -0.50 0.45 -0.50 1 0 0.55 -0.20 1 -0.50 1 -0.25 0 -0.50 0.45 -0.50 1 0 0.55 -0.20 1 -0.50 1 -0.25 0 -0.50 0.45 -0.50 1 0 0.55 -0.20 1 -0.50 1 -0.25 0 -0.50 0.45 -0.50 1 0 0.55 -0.20 1 -0.50 1 -0.25 0 -0.50 0.45 -0.50 1 0 0.55 -0.15 1 -0.30 1 -0.55 0 -1.70 -1.45 -1.70 -2.20 0 -0.45 -0.20 -0.80 -0.50 -0.80 -0.25 0 -0.50 -0.45 -0.50 -1 0 -0.55 -0.20 -1 -0.50 -1 -0.25 0 -0.50 -0.45 -0.50 -1 0 -0.55 -0.20 -1 -0.50 -1 -0.25 0 -0.50 -0.45 -0.50 -1 0 -0.55 -0.20 -1 -0.50 -1 -0.25 0 -0.50 -0.45 -0.50 -1 0 -0.55 -0.20 -1 -0.50 -1 -0.25 0 -0.50 -0.45 -0.50 -1 0 -0.55 -0.20 -1 -0.50 -1 -0.25 0 -0.50 -0.45 -0.50 -1 0 -0.55 -0.20 -1 -0.50 -1 -0.25 0 -0.50 -0.45 -0.50 -1 0 -0.55 -0.20 -1 -0.50 -1 -0.25 0 -0.50 -0.45 -0.50 -1 0 -0.55 -0.20 -1 -0.50 -1 -0.25 0 -0.50 -0.45 -0.50 -1 0 -0.55 -0.20 -1 -0.50 -1 -0.25 0 -0.50 -0.45 -0.50 -1 0 -0.55 -0.20 -1 -0.50 -1 -0.25 0 -0.50 -0.45 -0.50 -1 0 -0.55 -0.20 -1 -0.50 -1 -0.25 0 -0.50 -0.45 -0.50 -1 0 -0.55 -0.20 -1 -0.50 -1 -0.25 0 -0.50 -0.45 -0.50 -1 0 -0.80 -0.35 -1 -1.50 -1 -0.80 0 -1.50 0.25 -1.50 0.50 0 0.30 -0.45 0.50 -1 0.50 -0.55 0 -1 0.25 -1 0.50 0 0.30 -0.65 0.50 -1.50 0.50 -0.80 0 -1.50 0.25 -1.50 0.50 0 0.30 -0.45 0.50 -1 0.50 -0.55 0 -1 0.25 -1 0.50 0 0.30 -0.65 0.50 -1.50 0.50 -0.80 0 -1.50 0.25 -1.50 0.50 0 0.30 -0.45 0.50 -1 0.50 -0.55 0 -1 0.25 -1 0.50 0 0.30 -0.45 0.50 -1 0.50 -0.55 0 -1 0.25 -1 0.50 0 0.30 -0.65 0.50 -1.50 0.50 -0.80 0 -1.50 0.25 -1.50 0.50 0 0.30 -0.45 0.50 -1 0.50 -0.55 0 -1 0.25 -1 0.50 0 0.30 -0.65 0.50 -1.50 0.50 -0.80 0 -1.50 0.25 -1.50 0.50 0 0.30 -0.45 0.50 -1 0.50 -0.55 0 -1 0.25 -1 0.50 0 0.30 -0.65 0.50 -1.50 0.50 -0.80 0 -1.50 0.25 -1.50 0.50 0 0.30 -0.45 0.50 -1 0.50 -0.55 0 -1 0.25 -1 0.50 0 0.30 -0.65 0.50 -1.50 0.50 -0.80 0 -1.50 0.25 -1.50 0.50 0 0.30 -0.45 0.50 -1 0.50 -0.55 0 -1 0.25 -1 0.50 0 0.30 -0.45 0.50 -1 0.50 -0.55 0 -1 0.25 -1 0.50 0 0.30 -0.65 0.50 -1.50 0.50 -0.80 0 -1.50 0.25 -1.50 0.50 0 0.30 -0.45 0.50 -1 0.50 -0.55 0 -1 0.25 -1 0.50 0 0.30 -0.65 0.50 -1.50 0.50 -0.80 0 -1.50 0.25 -1.50 0.50 0 0.30 -0.45 0.50 -1 0.50 -0.55 0 -1 0.25 -1 0.50 0 0.30 -0.65 0.50 -1.50 0.50 -0.80 0 -1.50 0.25 -1.50 0.50 0 0.30 -0.45 0.50 -1 0.50 -0.55 0 -1 0.25 -1 0.50 0 0.30 -0.65 0.50 -1.50 0.50 -0.80 0 -1.50 0.25 -1.50 0.50 0 0.30 -0.45 0.50 -1 0.50 -0.55 0 -1 0.25 -1 0.50 0 0.30 -0.45 0.50 -1 0.50 -0.55 0 -1 0.25 -1 0.50 0 0.30 -0.65 0.50 -1.50 0.50 -0.80 0 -1.50 0.25 -1.50 0.50 0 0.30 -0.45 0.50 -1 0.50 -0.55 0 -1 0.25 -1 0.50 0 0.30 -0.65 0.50 -1.50 0.50 -0.80 0 -1.50 0.25 -1.50 0.50 0 0.30 -0.45 0.50 -1 0.50 -0.55 0 -1 0.25 -1 0.50 0 0.30 -0.45 0.50 -1 0.50 -0.55 0 -1 -0.15 -1 -0.30z m9 -4.20 c0 -0.25 0.70 -0.50 1.50 -0.50 0.85 0 1.50 -0.20 1.50 -0.50 0 -0.25 0.45 -0.50 1 -0.50 0.55 0 1 -0.20 1 -0.50 0 -0.25 0.45 -0.50 1 -0.50 0.55 0 1 -0.20 1 -0.50 0 -0.25 0.70 -0.50 1.50 -0.50 0.85 0 1.50 -0.20 1.50 -0.50 0 -0.25 0.45 -0.50 1 -0.50 0.55 0 1 -0.20 1 -0.50 0 -0.25 0.70 -0.50 1.50 -0.50 0.85 0 1.50 -0.20 1.50 -0.50 0 -0.25 0.45 -0.50 1 -0.50 0.55 0 1 -0.20 1 -0.50 0 -0.25 0.70 -0.50 1.50 -0.50 0.85 0 1.50 -0.20 1.50 -0.50 0 -0.25 0.45 -0.50 1 -0.50 0.55 0 1 -0.20 1 -0.50 0 -0.25 0.70 -0.50 1.50 -0.50 0.85 0 1.50 -0.20 1.50 -0.50 0 -0.25 0.45 -0.50 1 -0.50 0.55 0 1 -0.20 1 -0.50 0 -0.25 0.45 -0.50 1 -0.50 0.55 0 1 -0.20 1 -0.50 0 -0.25 0.70 -0.50 1.50 -0.50 0.85 0 1.50 -0.20 1.50 -0.50 0 -0.25 0.45 -0.50 1 -0.50 0.55 0 1 -0.20 1 -0.50 0 -0.25 0.70 -0.50 1.50 -0.50 0.85 0 1.50 -0.20 1.50 -0.50 0 -0.25 0.45 -0.50 1 -0.50 0.55 0 1 -0.20 1 -0.50 0 -0.25 0.70 -0.50 1.50 -0.50 0.85 0 1.50 -0.20 1.50 -0.50 0 -0.25 0.45 -0.50 1 -0.50 0.55 0 1 -0.20 1 -0.50 0 -0.25 0.70 -0.50 1.50 -0.50 0.85 0 1.50 -0.20 1.50 -0.50 0 -0.25 0.45 -0.50 1 -0.50 0.55 0 1 -0.20 1 -0.50 0 -0.25 0.45 -0.50 1 -0.50 0.55 0 1 -0.20 1 -0.50 0 -0.25 0.70 -0.50 1.50 -0.50 0.85 0 1.50 -0.20 1.50 -0.50 0 -0.25 0.45 -0.50 1 -0.50 0.55 0 1 -0.20 1 -0.50 0 -0.25 0.70 -0.50 1.50 -0.50 0.85 0 1.50 -0.20 1.50 -0.50 0 -0.25 0.45 -0.50 1 -0.50 0.65 0 1 -0.35 1 -1 0 -0.60 0.35 -1 0.80 -1 1 0 2.20 -1.20 2.20 -2.20 0 -0.45 0.25 -0.80 0.50 -0.80 0.30 0 0.50 -0.45 0.50 -1 0 -0.55 0.25 -1 0.50 -1 0.30 0 0.50 -0.45 0.50 -1 0 -0.55 0.25 -1 0.50 -1 0.30 0 0.50 -0.45 0.50 -1 0 -0.55 0.25 -1 0.50 -1 0.30 0 0.50 -0.55 0.50 -1.25 0 -1.30 -2 -3.75 -3.05 -3.75 -0.30 0 -1.20 -0.65 -1.95 -1.50 -0.75 -0.80 -1.70 -1.50 -2 -1.50 -0.35 0 -1.10 -0.50 -1.65 -1.10 -0.65 -0.80 -1.05 -0.95 -1.20 -0.50 -0.15 0.30 -0.55 0.60 -1 0.60 -0.40 0 -1.40 0.70 -2.15 1.50 -0.75 0.85 -1.65 1.50 -2 1.50 -0.35 0 -1.25 0.70 -2 1.50 -0.75 0.85 -1.65 1.50 -2 1.50 -0.30 0 -1.45 0.90 -2.50 2 -1.05 1.10 -2.20 2 -2.50 2 -0.35 0 -1.25 0.70 -2 1.50 -0.75 0.85 -1.65 1.50 -2 1.50 -0.35 0 -1.25 0.70 -2 1.50 -0.75 0.85 -1.65 1.50 -2 1.50 -0.30 0 -1.45 0.90 -2.50 2 -1.05 1.10 -2.20 2 -2.50 2 -0.35 0 -1.25 0.70 -2 1.50 -0.75 0.85 -1.65 1.50 -2 1.50 -0.35 0 -1.25 0.70 -2 1.50 -0.75 0.85 -1.65 1.50 -2 1.50 -0.30 0 -1.45 0.90 -2.50 2 -1.05 1.10 -2.20 2 -2.50 2 -0.35 0 -1.25 0.70 -2 1.50 -0.75 0.85 -1.65 1.50 -2 1.50 -0.35 0 -1.25 0.70 -2 1.50 -0.75 0.85 -1.65 1.50 -2 1.50 -0.30 0 -1.45 0.90 -2.50 2 -1.05 1.10 -2.30 2 -2.70 2 -0.45 0 -0.80 0.25 -0.80 0.50 0 0.30 -0.35 0.50 -0.75 0.50 -0.45 0 -1.55 0.80 -2.50 1.75 -1.85 1.80 -2.10 2.25 -1.25 2.25 0.30 0 0.50 -0.20 0.50 -0.50z m156 -3.30 c0 -0.40 -0.90 -1.65 -2 -2.70 -1.10 -1.05 -2 -2.20 -2 -2.50 0 -0.30 -1.55 -2.10 -3.50 -4 -1.90 -1.90 -3.50 -3.70 -3.50 -4 0 -0.30 -1.80 -2.30 -4 -4.50 -2.20 -2.20 -4 -4.20 -4 -4.50 0 -0.30 -1.55 -2.10 -3.50 -4 -1.90 -1.90 -3.50 -3.70 -3.50 -4 0 -0.30 -1.55 -2.10 -3.50 -4 -1.90 -1.90 -3.50 -3.70 -3.50 -4 0 -0.80 -2.35 -3 -3.25 -3 -0.40 0 -0.75 -0.20 -0.75 -0.50 0 -0.30 -3.35 -0.50 -9 -0.50 -4.95 0 -9 0.10 -9 0.25 0 0.55 2.45 2.75 3.05 2.75 0.30 0 1.20 0.70 1.95 1.50 0.75 0.85 1.65 1.50 2 1.50 0.30 0 1.45 0.90 2.50 2 1.05 1.10 2.20 2 2.50 2 0.35 0 1.25 0.70 2 1.50 0.75 0.85 1.65 1.50 2 1.50 0.35 0 1.25 0.70 2 1.50 0.75 0.85 1.65 1.50 2 1.50 0.30 0 1.45 0.90 2.50 2 1.05 1.10 2.20 2 2.50 2 0.35 0 1.25 0.70 2 1.50 0.75 0.85 1.65 1.50 2 1.50 0.35 0 1.25 0.70 2 1.50 0.75 0.85 1.65 1.50 2 1.50 0.30 0 1.45 0.90 2.50 2 1.05 1.10 2.20 2 2.50 2 0.35 0 1.25 0.70 2 1.50 0.75 0.85 1.65 1.50 2 1.50 0.35 0 1.25 0.70 2 1.50 0.75 0.85 1.65 1.50 2 1.50 0.30 0 1.45 0.90 2.50 2 1.05 1.10 2.20 2 2.60 2 0.35 0 1.20 0.70 1.90 1.50 1.40 1.65 2 1.85 2 0.70z m-86 -37.20 c0 -0.55 0.25 -1 0.50 -1 0.30 0 0.50 -0.45 0.50 -1 0 -0.55 0.25 -1 0.50 -1 0.30 0 0.50 -0.45 0.50 -0.95 0 -0.55 0.30 -1.10 0.65 -1.25 0.50 -0.25 0.50 -0.35 0 -0.60 -0.35 -0.15 -0.65 -0.70 -0.65 -1.25 0 -0.50 -0.20 -0.95 -0.50 -0.95 -0.25 0 -0.50 -0.45 -0.50 -1 0 -0.55 -0.20 -1 -0.50 -1 -0.25 0 -0.50 -0.35 -0.50 -0.80 0 -0.95 -1.20 -2.20 -2.10 -2.20 -0.40 0 -1 0.45 -1.40 1 -0.40 0.55 -1.05 1 -1.40 1 -0.40 0 -1.35 0.70 -2.10 1.50 -0.75 0.85 -1.65 1.50 -2 1.50 -0.75 0 -2 1.25 -2 2 0 0.75 1.25 2 2 2 0.35 0 1.25 0.70 2 1.50 0.75 0.85 1.70 1.50 2.10 1.50 0.35 0 1 0.45 1.40 1 0.40 0.60 1.30 1 2.10 1 1.05 0 1.40 -0.25 1.40 -1z m-10.50 -8 c0.40 -0.55 1.05 -1 1.40 -1 0.40 0 1.35 -0.65 2.10 -1.50 0.75 -0.80 1.65 -1.50 1.95 -1.50 0.85 0 3.05 -2.35 3.05 -3.25 0 -0.40 -0.20 -0.75 -0.50 -0.75 -0.25 0 -0.50 -0.45 -0.50 -1 0 -0.55 -0.20 -1 -0.50 -1 -0.25 0 -0.50 -0.45 -0.50 -1 0 -0.55 -0.20 -1 -0.50 -1 -0.25 0 -0.50 -0.45 -0.50 -1 0 -0.55 -0.20 -1 -0.50 -1 -0.25 0 -0.50 -0.35 -0.50 -0.75 0 -1 -2.25 -3.25 -3.25 -3.25 -0.40 0 -0.75 -0.20 -0.75 -0.50 0 -0.25 -0.45 -0.50 -1 -0.50 -0.55 0 -1 -0.20 -1 -0.50 0 -0.25 -0.45 -0.50 -1 -0.50 -0.55 0 -1 -0.20 -1 -0.50 0 -0.25 -0.65 -0.50 -1.50 -0.50 -0.80 0 -1.50 -0.20 -1.50 -0.50 0 -0.25 -0.45 -0.50 -1 -0.50 -0.55 0 -1 -0.20 -1 -0.50 0 -0.25 -0.45 -0.50 -1 -0.50 -0.55 0 -1 -0.20 -1 -0.50 0 -0.25 -0.65 -0.50 -1.50 -0.50 -0.80 0 -1.50 -0.20 -1.50 -0.50 0 -0.25 -0.45 -0.50 -1 -0.50 -0.55 0 -1 -0.20 -1 -0.50 0 -0.25 -0.45 -0.50 -1 -0.50 -0.55 0 -1 -0.20 -1 -0.50 0 -0.25 -0.65 -0.50 -1.50 -0.50 -0.80 0 -1.50 -0.20 -1.50 -0.50 0 -0.25 -0.45 -0.50 -1 -0.50 -0.55 0 -1 -0.20 -1 -0.50 0 -0.25 -0.45 -0.50 -1 -0.50 -0.55 0 -1 -0.20 -1 -0.50 0 -0.25 -0.65 -0.50 -1.50 -0.50 -0.80 0 -1.50 -0.20 -1.50 -0.50 0 -0.25 -0.45 -0.50 -1 -0.50 -0.55 0 -1 -0.20 -1 -0.50 0 -0.25 -0.45 -0.50 -1 -0.50 -0.55 0 -1 -0.20 -1 -0.50 0 -0.25 -0.65 -0.50 -1.50 -0.50 -0.80 0 -1.50 -0.20 -1.50 -0.50 0 -0.25 -0.45 -0.50 -1 -0.50 -0.55 0 -1 -0.20 -1 -0.50 0 -0.25 -0.45 -0.50 -1 -0.50 -0.55 0 -1 -0.20 -1 -0.50 0 -0.25 -0.65 -0.50 -1.50 -0.50 -0.80 0 -1.50 -0.20 -1.50 -0.50 0 -0.25 -0.45 -0.50 -1 -0.50 -0.55 0 -1 -0.20 -1 -0.50 0 -0.25 -0.45 -0.50 -1 -0.50 -0.55 0 -1 -0.20 -1 -0.50 0 -0.25 -0.65 -0.50 -1.50 -0.50 -0.80 0 -1.50 -0.20 -1.50 -0.50 0 -0.25 -0.45 -0.50 -1 -0.50 -0.55 0 -1 -0.20 -1 -0.50 0 -0.25 -0.45 -0.50 -1 -0.50 -0.55 0 -1 -0.20 -1 -0.50 0 -0.25 -0.65 -0.50 -1.50 -0.50 -0.80 0 -1.50 -0.20 -1.50 -0.50 0 -0.25 -0.45 -0.50 -1 -0.50 -0.55 0 -1 -0.20 -1 -0.50 0 -0.25 -0.45 -0.50 -0.95 -0.50 -0.55 0 -1.05 -0.30 -1.20 -0.60 -0.10 -0.35 -0.40 -0.50 -0.60 -0.30 -0.40 0.40 2.95 3.90 3.75 3.90 0.35 0 1.45 0.90 2.50 2 1.05 1.10 2.20 2 2.50 2 0.35 0 1.25 0.70 2 1.50 0.75 0.85 1.65 1.50 2 1.50 0.35 0 1.25 0.70 2 1.50 0.75 0.85 1.65 1.50 2 1.50 0.30 0 1.45 0.90 2.50 2 1.05 1.10 2.20 2 2.50 2 0.35 0 1.25 0.70 2 1.50 0.75 0.85 1.65 1.50 2 1.50 0.35 0 1.25 0.70 2 1.50 0.75 0.85 1.65 1.50 2 1.50 0.30 0 1.45 0.90 2.50 2 1.05 1.10 2.20 2 2.50 2 0.35 0 1.25 0.70 2 1.50 0.75 0.85 1.65 1.50 2 1.50 0.35 0 1.25 0.70 2 1.50 0.75 0.85 1.65 1.50 2 1.50 0.30 0 1.45 0.90 2.50 2 1.05 1.10 2.20 2 2.50 2 0.35 0 1.25 0.70 2 1.50 0.75 0.85 1.65 1.50 2 1.50 0.35 0 1.25 0.70 2 1.50 0.75 0.85 1.75 1.50 2.20 1.50 0.45 0 0.80 0.25 0.80 0.50 0 0.30 0.45 0.50 1 0.50 0.55 0 1 0.25 1 0.50 0 0.80 0.75 0.55 1.50 -0.50z m59.50 0.50 c0 -0.25 0.35 -0.50 0.75 -0.50 0.90 0 3.25 -2.20 3.25 -3 0 -0.30 2.05 -2.55 4.50 -5 2.50 -2.45 4.50 -4.70 4.50 -5 0 -0.30 2.05 -2.55 4.50 -5 2.50 -2.45 4.50 -4.70 4.50 -5 0 -0.30 2.05 -2.55 4.50 -5 2.50 -2.45 4.50 -4.70 4.50 -5 0 -0.30 2.05 -2.55 4.50 -5 2.50 -2.45 4.50 -4.80 4.50 -5.25 0 -1.15 -0.40 -0.95 -2.50 1.25 -1.05 1.10 -2.20 2 -2.50 2 -0.30 0 -1.45 0.90 -2.50 2 -1.05 1.10 -2.20 2 -2.50 2 -0.35 0 -1.25 0.70 -2 1.50 -0.75 0.85 -1.65 1.50 -2 1.50 -0.35 0 -1.25 0.70 -2 1.50 -0.75 0.85 -1.65 1.50 -2 1.50 -0.30 0 -1.45 0.90 -2.50 2 -1.05 1.10 -2.20 2 -2.50 2 -0.35 0 -1.25 0.70 -2 1.50 -0.75 0.85 -1.65 1.50 -2 1.50 -0.35 0 -1.25 0.70 -2 1.50 -0.75 0.85 -1.65 1.50 -2 1.50 -0.30 0 -1.45 0.90 -2.50 2 -1.05 1.10 -2.20 2 -2.50 2 -0.35 0 -1.25 0.70 -2 1.50 -0.75 0.85 -1.65 1.50 -2 1.50 -0.35 0 -1.25 0.70 -2 1.50 -0.75 0.85 -1.65 1.50 -2 1.50 -0.30 0 -1.45 0.90 -2.50 2 -1.05 1.10 -2.20 2 -2.50 2 -0.35 0 -1.25 0.70 -2 1.50 -0.75 0.85 -1.65 1.50 -2 1.50 -0.35 0 -1.25 0.70 -2 1.50 -0.75 0.85 -1.75 1.50 -2.20 1.50 -0.45 0 -0.80 0.25 -0.80 0.50 0 0.30 3.35 0.50 9 0.50 5.65 0 9 -0.20 9 -0.50z"/>
  <path d="M119 78 c0 -0.55 -0.20 -1 -0.50 -1 -0.25 0 -0.50 -0.45 -0.50 -1 0 -0.55 -0.20 -1 -0.50 -1 -0.25 0 -0.50 -0.45 -0.50 -1 0 -0.55 -0.20 -1 -0.50 -1 -0.25 0 -0.50 -0.65 -0.50 -1.50 0 -0.80 0.25 -1.50 0.50 -1.50 0.30 0 0.50 -0.45 0.50 -1 0 -0.55 0.25 -1 0.50 -1 0.30 0 0.50 -0.45 0.50 -1 0 -0.55 0.25 -1 0.50 -1 0.30 0 0.50 -0.45 0.50 -1 0 -1.75 2.35 -1.25 4.50 1 1.05 1.10 2.15 2 2.50 2 0.30 0 1.35 0.80 2.30 1.75 1.55 1.55 1.65 1.85 1 2.50 -0.40 0.40 -1 0.75 -1.30 0.75 -0.30 0 -1.45 0.90 -2.50 2 -1.05 1.10 -2.25 2 -2.60 2 -0.35 0 -1 0.45 -1.40 1 -0.40 0.55 -1.10 1 -1.60 1 -0.55 0 -0.90 -0.35 -0.90 -1z"/>
 </g>
</svg>